<?xml version="1.0" encoding="UTF-8"?>
<svg version="1.1" xmlns="http://www.w3.org/2000/svg" width="50" height="50">
<path d="M0 0 C16.5 0 33 0 50 0 C50 16.5 50 33 50 50 C33.5 50 17 50 0 50 C0 33.5 0 17 0 0 Z " fill="#FCFDFD" transform="translate(0,0)"/>
<path d="M0 0 C3.66161578 1.22053859 4.16270474 2.36782304 6.1875 5.5625 C6.71730469 6.38878906 7.24710938 7.21507812 7.79296875 8.06640625 C8.19128906 8.70449219 8.58960937 9.34257812 9 10 C10.65 8.35 12.3 6.7 14 5 C15.17249353 6.45365269 16.33783816 7.91307419 17.5 9.375 C18.1496875 10.18710937 18.799375 10.99921875 19.46875 11.8359375 C21 14 21 14 21 16 C21.66 16 22.32 16 23 16 C23.495 17.98 23.495 17.98 24 20 C19.99783548 21.03281665 16.28032201 21.05110078 12.18359375 20.9375 C9.9912611 20.91490055 9.9912611 20.91490055 7.9140625 21.56640625 C6 22 6 22 2.9375 20.9375 C1.968125 20.628125 0.99875 20.31875 0 20 C-0.99 20.66 -1.98 21.32 -3 22 C-5.26171875 22.1953125 -5.26171875 22.1953125 -7.6875 22.125 C-8.89986328 22.09792969 -8.89986328 22.09792969 -10.13671875 22.0703125 C-10.75160156 22.04710938 -11.36648437 22.02390625 -12 22 C-12.67197778 17.46845753 -11.11356064 15.23037083 -8.54296875 11.73046875 C-8.07503906 11.11816406 -7.60710938 10.50585938 -7.125 9.875 C-6.21083277 8.64330689 -5.29676664 7.41153874 -4.3828125 6.1796875 C-3.20332031 4.60574219 -3.20332031 4.60574219 -2 3 C-1.34 2.01 -0.68 1.02 0 0 Z " fill="#D5C7C1" transform="translate(19,14)"/>
<path d="M0 0 C5.80205656 5.64524422 5.80205656 5.64524422 8 9 C8 9.66 8 10.32 8 11 C8.66 11 9.32 11 10 11 C10.33 12.32 10.66 13.64 11 15 C6.99783548 16.03281665 3.28032201 16.05110078 -0.81640625 15.9375 C-3.00843047 15.92189313 -3.00843047 15.92189313 -5.10546875 16.52734375 C-7.62009581 17.15470432 -9.51693464 16.62076634 -12 16 C-11.67 13.69 -11.34 11.38 -11 9 C-9.515 9.99 -9.515 9.99 -8 11 C-8 11.66 -8 12.32 -8 13 C-7.34 13 -6.68 13 -6 13 C-5.67 12.34 -5.34 11.68 -5 11 C-5.33 10.34 -5.66 9.68 -6 9 C-6.33 8.34 -6.66 7.68 -7 7 C-6.67 6.34 -6.34 5.68 -6 5 C-3.525 8.465 -3.525 8.465 -1 12 C-1.350625 11.443125 -1.70125 10.88625 -2.0625 10.3125 C-3.24277769 7.40114837 -2.91386465 5.97006011 -2 3 C-1.34 2.01 -0.68 1.02 0 0 Z " fill="#EAE8E5" transform="translate(32,19)"/>
<path d="M0 0 C3.79620155 1.26540052 4.48678188 2.78218431 6.6875 6.0625 C7.31011719 6.98160156 7.93273438 7.90070312 8.57421875 8.84765625 C9.27998047 9.91306641 9.27998047 9.91306641 10 11 C9.67 11.66 9.34 12.32 9 13 C7.68 13 6.36 13 5 13 C2 9.78571429 2 9.78571429 2 7 C-0.87420123 9.71604715 -0.87420123 9.71604715 -3 13 C-4.32 13 -5.64 13 -7 13 C-7 9.16235973 -5.73464665 7.88513915 -3.5 4.8125 C-2.8503125 3.91144531 -2.200625 3.01039062 -1.53125 2.08203125 C-1.0259375 1.39496094 -0.520625 0.70789063 0 0 Z " fill="#7D635A" transform="translate(19,19)"/>
<path d="M0 0 C5.80205656 5.64524422 5.80205656 5.64524422 8 9 C8 9.66 8 10.32 8 11 C8.66 11 9.32 11 10 11 C10.33 12.32 10.66 13.64 11 15 C7.59437148 15.77842938 4.49234244 16.09978121 1 16 C1 15.34 1 14.68 1 14 C2.32 14 3.64 14 5 14 C3.7260411 11.96166576 2.38938077 9.96147874 1 8 C0.34 8 -0.32 8 -1 8 C-0.67 7.01 -0.34 6.02 0 5 C0.66 5 1.32 5 2 5 C2 4.34 2 3.68 2 3 C-0.475 4.485 -0.475 4.485 -3 6 C-1.125 1.125 -1.125 1.125 0 0 Z " fill="#A98B81" transform="translate(32,19)"/>
<path d="M0 0 C3.38956166 1.12985389 3.78574251 1.73869763 5.69921875 4.59765625 C6.18583984 5.31630859 6.67246094 6.03496094 7.17382812 6.77539062 C7.67333984 7.53013672 8.17285156 8.28488281 8.6875 9.0625 C9.19861328 9.82111328 9.70972656 10.57972656 10.23632812 11.36132812 C11.49806185 13.23624085 12.75220179 15.1157962 14 17 C13.01 17 12.02 17 11 17 C9.29939257 14.86175784 7.79794342 12.77910139 6.3125 10.5 C5.89677734 9.87996094 5.48105469 9.25992187 5.05273438 8.62109375 C4.02596494 7.08684057 3.01177775 5.54418071 2 4 C-1.34998521 5.11666174 -1.79340222 5.74694925 -3.6875 8.5625 C-4.12449219 9.20316406 -4.56148437 9.84382813 -5.01171875 10.50390625 C-5.33785156 10.99761719 -5.66398438 11.49132813 -6 12 C-6 8.36804504 -5.04546845 7.25286089 -3 4.3125 C-2.443125 3.50425781 -1.88625 2.69601563 -1.3125 1.86328125 C-0.879375 1.24839844 -0.44625 0.63351562 0 0 Z " fill="#9F4126" transform="translate(19,14)"/>
<path d="M0 0 C3.96 0 7.92 0 12 0 C9 3 9 3 6.73828125 3.29296875 C5.93777344 3.25816406 5.13726562 3.22335938 4.3125 3.1875 C3.10013672 3.14689453 3.10013672 3.14689453 1.86328125 3.10546875 C0.94095703 3.05326172 0.94095703 3.05326172 0 3 C0 2.01 0 1.02 0 0 Z " fill="#9CA1A1" transform="translate(7,33)"/>
<path d="M0 0 C4.00972202 3.67557852 6.45335415 7.18966896 9 12 C8.34 12 7.68 12 7 12 C5.7109375 10.5390625 5.7109375 10.5390625 4.375 8.625 C3.70597656 7.68527344 3.70597656 7.68527344 3.0234375 6.7265625 C2 5 2 5 2 3 C-0.475 4.485 -0.475 4.485 -3 6 C-1.125 1.125 -1.125 1.125 0 0 Z " fill="#313434" transform="translate(32,19)"/>
<path d="M0 0 C3.63 0 7.26 0 11 0 C10.67 0.66 10.34 1.32 10 2 C6.18015204 2.77811718 3.73159669 3.24386556 0 2 C0 1.34 0 0.68 0 0 Z " fill="#989C9D" transform="translate(20,33)"/>
<path d="M0 0 C1.485 0.99 1.485 0.99 3 2 C3 2.66 3 3.32 3 4 C3.66 4 4.32 4 5 4 C5.33 3.34 5.66 2.68 6 2 C6.33 2.99 6.66 3.98 7 5 C4.36 5 1.72 5 -1 5 C-0.67 3.35 -0.34 1.7 0 0 Z " fill="#F2F1EF" transform="translate(21,28)"/>
</svg>
